<?xml version="1.0" encoding="UTF-8" standalone="no"?>
<!DOCTYPE svg PUBLIC "-//W3C//DTD SVG 1.1//EN" "http://www.w3.org/Graphics/SVG/1.1/DTD/svg11.dtd">
<svg width="100%" height="100%" viewBox="0 0 87 75" version="1.1" xmlns="http://www.w3.org/2000/svg" xmlns:xlink="http://www.w3.org/1999/xlink" xml:space="preserve" xmlns:serif="http://www.serif.com/" style="fill-rule:evenodd;clip-rule:evenodd;stroke-linejoin:round;stroke-miterlimit:2;">
    <g transform="matrix(1,0,0,1.30933,-443.975,-2973.08)">
        <g transform="matrix(0.0735418,0,0,0.0585631,468.127,2295.56)">
            <path d="M471.067,393.055C455.513,373.719 427.131,370.639 407.801,386.187C401.667,391.119 395.244,395.68 388.587,399.889L359.05,319.875C382.446,318.299 401,298.777 401,274.99C401,250.177 380.813,229.99 356,229.99L341,229.99L341,169.991L356,169.991C364.271,169.991 371,176.719 371,184.991C371,193.275 377.716,199.991 386,199.991C394.284,199.991 401,193.275 401,184.991C401,160.178 380.813,139.991 356,139.991L178.45,139.991L160.616,38.854C156.291,14.334 134.3,-2.594 110.565,0.328C98.162,1.85 87.249,8.206 79.835,18.226C72.524,28.106 69.556,40.711 71.689,52.811L107.873,258.014C112.581,284.715 130.966,305.962 155.073,315.11L123.412,399.889C116.756,395.68 110.334,391.12 104.201,386.189C84.872,370.64 56.491,373.717 40.931,393.057C25.382,412.394 28.464,440.775 47.801,456.323C103.473,501.088 177.413,512 256,512C334.592,512 408.532,501.088 464.198,456.323C483.535,440.775 486.617,412.393 471.067,393.055ZM311,229.991L261,229.991L261,169.992L311,169.992L311,229.991ZM231,169.991L231,229.99L194.319,229.99L183.739,169.991L231,169.991ZM137.417,252.805L101.233,47.602C100.511,43.509 101.476,39.415 103.95,36.072C106.421,32.733 110.068,30.614 114.221,30.103C114.745,30.039 115.27,30.007 115.791,30.007C122.98,30.007 129.648,35.997 131.07,44.064L166.959,247.595C168.224,254.764 174.452,259.99 181.731,259.99L356,259.99C364.271,259.99 371,266.718 371,274.99C371,283.261 364.271,289.99 356,289.99L181.733,289.99C159.853,289.99 141.216,274.352 137.417,252.805ZM185.743,319.99L326.258,319.99L362.118,414.192C296.563,444.144 215.437,444.144 149.884,414.192L185.743,319.99ZM450.91,422.874C450.478,426.858 448.52,430.434 445.398,432.944C395.042,473.44 327.778,495.741 256,495.741C184.226,495.741 116.963,473.439 66.601,432.944C63.48,430.434 61.522,426.858 61.09,422.874C60.656,418.891 61.801,414.978 64.309,411.858C67.271,408.176 71.626,406.261 76.018,406.261C79.317,406.261 82.636,407.341 85.4,409.565C131.044,446.268 191.631,466.481 256,466.481C320.369,466.481 380.956,446.268 426.602,409.564C433.046,404.383 442.506,405.412 447.69,411.855C450.199,414.977 451.344,418.89 450.91,422.874Z" style="fill:rgb(31,76,130);fill-rule:nonzero;stroke:rgb(31,76,130);stroke-width:7.39px;"/>
        </g>
        <g transform="matrix(2.6875,0,0,2.05257,-13670.8,-2567.51)">
            <path d="M5253.94,2373.58C5254.21,2373.93 5254.61,2374.15 5255.06,2374.18C5255.5,2374.21 5255.93,2374.05 5256.25,2373.75C5258.68,2371.42 5264.03,2366.31 5266.47,2363.97C5267.18,2363.29 5268.3,2363.28 5269.02,2363.95C5271.57,2366.28 5277.23,2371.49 5279.75,2373.8C5280.07,2374.09 5280.5,2374.24 5280.94,2374.2C5281.37,2374.17 5281.77,2373.95 5282.04,2373.61C5282.04,2373.61 5282.04,2373.61 5282.04,2373.61C5282.52,2373 5282.45,2372.12 5281.89,2371.59C5279.24,2369.1 5272,2362.28 5269.03,2359.48C5268.31,2358.8 5267.17,2358.81 5266.46,2359.5C5263.57,2362.32 5256.61,2369.12 5254.07,2371.6C5253.53,2372.13 5253.47,2372.98 5253.94,2373.58C5253.94,2373.58 5253.94,2373.58 5253.94,2373.58Z" style="fill:none;stroke:rgb(31,76,130);stroke-width:1.24px;stroke-linecap:round;stroke-linejoin:miter;stroke-miterlimit:1.5;"/>
        </g>
        <g transform="matrix(1.09248,0,0,0.702462,-6018.75,528.157)">
            <path d="M5927.94,2527.68L5927.94,2554.89C5927.94,2555.9 5928.27,2556.87 5928.88,2557.59C5929.48,2558.3 5930.29,2558.7 5931.15,2558.7C5940.75,2558.7 5969.19,2558.7 5978.79,2558.7C5979.64,2558.7 5980.46,2558.3 5981.06,2557.59C5981.66,2556.87 5982,2555.9 5982,2554.89C5982,2546.6 5982,2527.68 5982,2527.68" style="fill:none;stroke:rgb(31,76,130);stroke-width:3.33px;stroke-linecap:round;stroke-linejoin:miter;stroke-miterlimit:1.5;"/>
        </g>
    </g>
</svg>
