<?xml version="1.0" encoding="UTF-8" standalone="no"?>
<!DOCTYPE svg PUBLIC "-//W3C//DTD SVG 1.1//EN" "http://www.w3.org/Graphics/SVG/1.1/DTD/svg11.dtd">
<svg width="100%" height="100%" viewBox="0 0 80 77" version="1.1" xmlns="http://www.w3.org/2000/svg" xmlns:xlink="http://www.w3.org/1999/xlink" xml:space="preserve" xmlns:serif="http://www.serif.com/" style="fill-rule:evenodd;clip-rule:evenodd;stroke-linejoin:round;stroke-miterlimit:2;">
    <g transform="matrix(0.156249,0,0,0.156249,-1.94893e-05,-1.50008)">
        <path d="M501.162,270.237L444.841,213.941C440.936,210.037 434.603,210.038 430.699,213.944C426.795,217.85 426.796,224.182 430.702,228.086L487.013,284.37C493.676,291.052 493.68,301.905 487.022,308.562C480.354,315.229 469.506,315.229 462.842,308.563L309.322,155.012L333.908,131.284L430.702,228.086C432.654,230.038 435.212,231.013 437.77,231.013C440.331,231.013 442.891,230.035 444.843,228.082C448.747,224.175 448.745,217.844 444.838,213.939L348.254,117.348C371.772,92.783 371.894,53.695 348.079,29.025C336.287,16.809 320.395,9.916 303.331,9.613C286.312,9.302 270.151,15.632 257.958,27.403L256.001,29.285L254.059,27.41C241.84,15.63 225.72,9.286 208.657,9.613C191.591,9.916 175.705,16.811 163.93,29.025C140.108,53.703 140.219,92.792 163.73,117.351L10.85,270.238C-3.615,284.702 -3.615,308.238 10.841,322.694C17.809,329.681 27.116,333.533 37.046,333.54L37.072,333.54C44.785,333.54 52.122,331.211 58.291,326.903L58.291,473.662C58.291,489.507 71.182,502.397 87.026,502.397L424.96,502.397C440.805,502.397 453.695,489.506 453.695,473.662L453.695,326.881C460.049,331.321 467.488,333.552 474.932,333.552C484.431,333.552 493.932,329.936 501.163,322.704C515.61,308.258 515.614,284.726 501.162,270.237ZM178.326,42.91C186.394,34.541 197.293,29.817 209.014,29.609C209.284,29.604 209.551,29.602 209.82,29.602C221.242,29.602 231.997,33.92 240.177,41.806L249.05,50.367C252.92,54.101 259.047,54.106 262.925,50.378L271.838,41.804C280.199,33.733 291.256,29.399 302.979,29.61C314.703,29.818 325.611,34.544 333.693,42.916C350.441,60.266 349.942,88.014 332.583,104.772L255.994,178.687L179.405,104.773C162.052,88.02 161.566,60.272 178.326,42.91ZM37.071,313.542L37.059,313.542C32.477,313.539 28.194,311.774 24.991,308.563C18.324,301.896 18.324,291.047 24.991,284.38L178.079,131.288L202.677,155.027L61.508,296.223C61.316,296.401 61.131,296.585 60.954,296.777L49.172,308.561C45.961,311.774 41.664,313.542 37.071,313.542ZM194.824,338.316C178.863,338.316 165.877,325.318 165.877,309.339C165.877,293.361 178.863,280.363 194.824,280.363C210.801,280.363 223.8,293.361 223.8,309.339C223.8,325.318 210.8,338.316 194.824,338.316ZM164.643,347.854C172.966,354.397 183.443,358.315 194.824,358.315C206.217,358.315 216.704,354.394 225.033,347.846C231.018,350.911 236.531,354.819 240.404,360.647C226.592,366.68 216.911,380.466 216.911,396.477C216.911,402.232 218.17,407.695 220.41,412.621C210.042,419.274 200.329,430.322 200.329,450.534L200.329,482.401L143.682,482.401L143.682,381.707C143.682,363.488 151.859,354.44 164.643,347.854ZM317.162,338.316C301.185,338.316 288.186,325.318 288.186,309.339C288.186,293.361 301.185,280.363 317.162,280.363C333.139,280.363 346.138,293.361 346.138,309.339C346.138,325.318 333.139,338.316 317.162,338.316ZM286.953,347.846C295.282,354.394 305.769,358.315 317.162,358.315C328.552,358.315 339.037,354.396 347.365,347.851C360.152,354.437 368.332,363.485 368.332,381.707L368.332,482.399L311.685,482.399L311.685,450.532C311.685,430.319 301.973,419.273 291.6,412.623C293.843,407.696 295.104,402.232 295.104,396.475C295.104,380.464 285.416,366.679 271.594,360.645C275.458,354.819 280.968,350.912 286.953,347.846ZM255.994,377.393C266.531,377.393 275.105,385.953 275.105,396.476C275.105,407.014 266.531,415.588 255.994,415.588C245.472,415.588 236.911,407.014 236.911,396.476C236.91,385.953 245.471,377.393 255.994,377.393ZM233.232,428.239C239.648,432.856 247.506,435.587 255.994,435.587C264.486,435.587 272.35,432.857 278.77,428.24C286.861,432.757 291.686,438.809 291.686,450.532L291.686,482.399L220.328,482.399L220.328,450.532C220.328,438.814 225.149,432.761 233.232,428.239ZM424.96,482.399L388.331,482.399L388.331,381.707C388.331,354.579 374.471,340.487 360.435,332.24C364.069,325.402 366.137,317.609 366.137,309.339C366.137,282.334 344.167,260.363 317.162,260.363C290.157,260.363 268.187,282.333 268.187,309.339C268.187,317.61 270.256,325.405 273.891,332.244C267.543,335.985 261.095,341.026 255.998,348.078C250.893,341.026 244.443,335.985 238.094,332.244C241.729,325.405 243.798,317.611 243.798,309.34C243.798,282.335 221.828,260.364 194.823,260.364C167.834,260.364 145.877,282.334 145.877,309.34C145.877,317.61 147.944,325.404 151.577,332.242C137.541,340.489 123.683,354.581 123.683,381.707L123.683,482.399L87.026,482.399C82.291,482.399 78.29,478.398 78.29,473.663L78.29,307.725L217.07,168.916L249.049,199.778C250.987,201.647 253.49,202.582 255.993,202.582C258.496,202.582 260.999,201.647 262.936,199.778L294.93,168.902L433.697,307.697L433.697,473.663C433.697,478.48 429.777,482.399 424.96,482.399Z" style="fill:rgb(31,76,130);fill-rule:nonzero;"/>
    </g>
</svg>
