<?xml version="1.0" encoding="UTF-8" standalone="no"?>
<!DOCTYPE svg PUBLIC "-//W3C//DTD SVG 1.1//EN" "http://www.w3.org/Graphics/SVG/1.1/DTD/svg11.dtd">
<svg width="100%" height="100%" viewBox="0 0 87 75" version="1.1" xmlns="http://www.w3.org/2000/svg" xmlns:xlink="http://www.w3.org/1999/xlink" xml:space="preserve" xmlns:serif="http://www.serif.com/" style="fill-rule:evenodd;clip-rule:evenodd;stroke-linecap:round;stroke-miterlimit:1.5;">
    <g transform="matrix(1,0,0,1,-5818.02,-3137.08)">
        <path d="M5866,3174.25C5866,3173.56 5865.44,3173 5864.75,3173L5857.25,3173C5856.56,3173 5856,3173.56 5856,3174.25L5856,3176.75C5856,3177.44 5856.56,3178 5857.25,3178L5864.75,3178C5865.44,3178 5866,3177.44 5866,3176.75L5866,3174.25Z" style="fill:none;stroke:rgb(31,76,130);stroke-width:2.78px;"/>
    </g>
    <g transform="matrix(1,0,0,1.30933,-443.975,-2973.08)">
        <g transform="matrix(2.6875,0,0,2.05257,-13670.8,-2567.51)">
            <path d="M5253.94,2373.58C5254.21,2373.93 5254.61,2374.15 5255.06,2374.18C5255.5,2374.21 5255.93,2374.05 5256.25,2373.75C5258.68,2371.42 5264.03,2366.31 5266.47,2363.97C5267.18,2363.29 5268.3,2363.28 5269.02,2363.95C5271.57,2366.28 5277.23,2371.49 5279.75,2373.8C5280.07,2374.09 5280.5,2374.24 5280.94,2374.2C5281.37,2374.17 5281.77,2373.95 5282.04,2373.61C5282.04,2373.61 5282.04,2373.61 5282.04,2373.61C5282.52,2373 5282.45,2372.12 5281.89,2371.59C5279.24,2369.1 5272,2362.28 5269.03,2359.48C5268.31,2358.8 5267.17,2358.81 5266.46,2359.5C5263.57,2362.32 5256.61,2369.12 5254.07,2371.6C5253.53,2372.13 5253.47,2372.98 5253.94,2373.58C5253.94,2373.58 5253.94,2373.58 5253.94,2373.58Z" style="fill:none;stroke:rgb(31,76,130);stroke-width:1.24px;"/>
        </g>
        <g transform="matrix(1.09248,0,0,0.702462,-6018.75,528.157)">
            <path d="M5927.94,2527.68L5927.94,2554.89C5927.94,2555.9 5928.27,2556.87 5928.88,2557.59C5929.48,2558.3 5930.29,2558.7 5931.15,2558.7C5940.75,2558.7 5969.19,2558.7 5978.79,2558.7C5979.64,2558.7 5980.46,2558.3 5981.06,2557.59C5981.66,2556.87 5982,2555.9 5982,2554.89C5982,2546.6 5982,2527.68 5982,2527.68" style="fill:none;stroke:rgb(31,76,130);stroke-width:3.33px;"/>
        </g>
    </g>
    <g transform="matrix(1.13333,0,0,1,-6600.01,-3137.08)">
        <path d="M5875.58,3180.37C5875.58,3179.06 5874.64,3178 5873.49,3178L5849.43,3178C5848.28,3178 5847.34,3179.06 5847.34,3180.37L5847.34,3185.1C5847.34,3186.4 5848.28,3187.46 5849.43,3187.46L5861.46,3191.46L5873.49,3187.46C5874.64,3187.46 5875.58,3186.4 5875.58,3185.1L5875.58,3180.37Z" style="fill:none;stroke:rgb(31,76,130);stroke-width:2.6px;"/>
    </g>
    <g transform="matrix(0.882353,0,0,0.857143,-5127.61,-2677.26)">
        <path d="M5843,3182.25L5843,3192.75C5843,3195.65 5845.28,3198 5848.1,3198L5871.9,3198C5874.72,3198 5877,3195.65 5877,3192.75L5877,3182.25" style="fill:none;stroke:rgb(31,76,130);stroke-width:3.19px;"/>
    </g>
</svg>
