<?xml version="1.0" encoding="UTF-8" standalone="no"?>
<!DOCTYPE svg PUBLIC "-//W3C//DTD SVG 1.1//EN" "http://www.w3.org/Graphics/SVG/1.1/DTD/svg11.dtd">
<svg width="100%" height="100%" viewBox="0 0 26 36" version="1.1" xmlns="http://www.w3.org/2000/svg" xmlns:xlink="http://www.w3.org/1999/xlink" xml:space="preserve" xmlns:serif="http://www.serif.com/" style="fill-rule:evenodd;clip-rule:evenodd;stroke-linejoin:round;stroke-miterlimit:2;">
    <g transform="matrix(0.0693569,0,0,0.0693569,-4.89472,0)">
        <path d="M256,0C153.755,0 70.573,83.182 70.573,185.426C70.573,312.314 236.512,498.593 243.577,506.461C250.213,513.852 261.799,513.839 268.423,506.461C275.488,498.593 441.427,312.314 441.427,185.426C441.425,83.182 358.244,0 256,0ZM256,469.729C200.153,403.391 103.965,272.512 103.965,185.428C103.965,101.594 172.167,33.392 256,33.392C339.833,33.392 408.035,101.594 408.035,185.427C408.034,272.515 311.861,403.37 256,469.729Z" style="fill:white;fill-rule:nonzero;"/>
    </g>
    <g transform="matrix(0.0693569,0,0,0.0693569,-4.89472,0)">
        <path d="M256,92.134C204.558,92.134 162.708,133.985 162.708,185.427C162.708,236.869 204.559,278.72 256,278.72C307.441,278.72 349.291,236.869 349.291,185.427C349.291,133.985 307.441,92.134 256,92.134ZM256,245.328C222.97,245.328 196.1,218.457 196.1,185.427C196.1,152.397 222.971,125.526 256,125.526C289.029,125.526 315.9,152.397 315.9,185.427C315.9,218.457 289.029,245.328 256,245.328Z" style="fill:white;fill-rule:nonzero;"/>
    </g>
</svg>
