<?xml version="1.0" encoding="UTF-8" standalone="no"?>
<!DOCTYPE svg PUBLIC "-//W3C//DTD SVG 1.1//EN" "http://www.w3.org/Graphics/SVG/1.1/DTD/svg11.dtd">
<svg width="100%" height="100%" viewBox="0 0 17 18" version="1.1" xmlns="http://www.w3.org/2000/svg" xmlns:xlink="http://www.w3.org/1999/xlink" xml:space="preserve" xmlns:serif="http://www.serif.com/" style="fill-rule:evenodd;clip-rule:evenodd;stroke-linejoin:round;stroke-miterlimit:2;">
    <g transform="matrix(0.0312674,0,0,0.0335821,0.2465,0.243593)">
        <path d="M499.639,396.039L395.993,326.919C382.84,318.218 365.209,321.081 355.485,333.498L325.294,372.316C321.414,377.432 314.361,378.916 308.748,375.798L303.005,372.632C283.967,362.255 260.279,349.336 212.552,301.592C164.825,253.848 151.88,230.142 141.503,211.139L138.354,205.396C135.193,199.784 136.649,192.701 141.767,188.79L180.559,158.608C192.971,148.883 195.838,131.257 187.147,118.1L118.027,14.454C109.12,1.056 91.25,-2.966 77.461,5.323L34.12,31.358C20.502,39.364 10.511,52.33 6.242,67.539C-9.365,124.405 2.376,222.547 146.948,367.136C261.952,482.131 347.567,513.056 406.413,513.056C419.956,513.114 433.446,511.352 446.52,507.817C461.732,503.553 474.7,493.561 482.701,479.939L508.762,436.624C517.063,422.832 513.043,404.951 499.639,396.039ZM494.058,427.868L468.057,471.209C462.312,481.041 452.985,488.27 442.03,491.382C389.533,505.795 297.817,493.857 159.022,355.062C20.227,216.267 8.29,124.559 22.703,72.054C25.819,61.086 33.057,51.747 42.901,45.993L86.242,19.992C92.225,16.392 99.981,18.137 103.846,23.951L141.393,80.322L172.907,127.588C176.681,133.295 175.441,140.944 170.057,145.167L131.256,175.349C119.448,184.378 116.076,200.715 123.346,213.681L126.427,219.279C137.333,239.281 150.892,264.164 200.394,313.658C249.896,363.151 274.771,376.711 294.764,387.616L300.37,390.705C313.335,397.974 329.673,394.603 338.702,382.795L368.884,343.994C373.108,338.613 380.754,337.374 386.463,341.144L490.1,410.264C495.918,414.126 497.663,421.886 494.058,427.868Z" style="fill-rule:nonzero;stroke:black;stroke-width:17.12px;"/>
    </g>
</svg>
